<svg width="200" height="100" viewBox="0 0 200 100" fill="none" xmlns="http://www.w3.org/2000/svg">
<rect width="200" height="100" rx="10" fill="#5045F4"/>
<path d="M87.2557 13H99.4505V36.9821H87.2558C71.1737 36.3639 71.0113 13.6492 87.2557 13ZM87.2557 61.9899H99.4505V38.0078H87.2558C71.0114 38.657 71.1737 61.3717 87.2557 61.9899ZM112.689 13H100.494V36.9821H112.689C128.987 36.1244 128.784 13.4895 112.689 13ZM99.4505 75.0068V63.0156H87.2558C77.3043 63.0156 71.0114 74.4879 77.9324 82.7279C84.5311 90.8953 99.4507 86.8234 99.4507 75.0068M124.909 49.9988C124.909 40.7835 114.693 34.9929 106.565 39.6005C98.437 44.2082 98.4369 55.7896 106.565 60.3973C114.693 65.0049 124.909 59.2142 124.909 49.9988Z" fill="white"/>
</svg>
