<svg width="200" height="100" viewBox="0 0 200 100" fill="none" xmlns="http://www.w3.org/2000/svg">
<rect width="200" height="100" rx="10" fill="#5045F4"/>
<path d="M128.693 13.0002H71.3061C66.9171 12.967 63.0582 16.4013 63 21.3063V78.6936C63.0584 83.5985 66.9171 87.0328 71.3061 86.9997H128.693C134.37 86.9187 136.901 82.6316 137 78.6936V21.3063C136.902 17.3683 134.37 13.0809 128.693 13.0002ZM85.5303 73.0283C84.9524 77.3191 82.268 80.1204 77.3382 80.2593C73.4964 80.3677 70.3767 78.7086 68.4383 75.0508L73.0906 72.219C73.0913 72.2205 74.3171 74.4314 75.6315 74.8865C76.3259 75.127 77.7806 75.2152 78.7288 74.5957C79.5948 74.0301 79.8667 72.5225 79.8667 72.5225V52.093H85.5303V73.0283ZM104.111 79.1399C99.5762 81.1521 91.5292 80.4187 88.7666 74.3428L93.3176 71.7132C95.5932 76.0368 101.495 76.0264 102.654 73.1789C103.785 70.3984 100.372 69.3112 96.1357 67.4327C94.2933 66.4826 91.4424 64.9862 90.5867 61.3298C89.9411 58.5707 90.5173 54.4012 94.8345 52.4972L94.8349 52.4974C100.823 50.3 105.42 53.1043 106.769 56.3405L102.42 59.1725C101.777 58.0122 100.407 56.8257 98.8247 56.7409C97.3901 56.6639 96.0563 57.4138 96.0137 59.354C96.099 62.181 99.8163 62.1808 104.274 65.0046C107.54 67.0733 108.151 68.6544 108.453 71.5124C108.677 73.6307 108.278 77.2906 104.111 79.1399ZM126.187 80.1074L120.726 70.3984L115.264 80.1075H109.702L117.59 65.6452L110.208 51.8906H115.872L120.726 60.8915L125.58 51.8904H131.143L123.861 65.645L131.749 80.1074H126.187Z" fill="white"/>
</svg>
