<svg width="200" height="100" viewBox="0 0 200 100" fill="none" xmlns="http://www.w3.org/2000/svg">
<rect width="200" height="100" rx="10" fill="white"/>
<path d="M99.543 25.6378V89.3897L106.174 83.8078L108.96 17.709L99.543 25.6378Z" fill="url(#paint0_linear_322_85)"/>
<path d="M99.5404 25.6378L90.123 17.709L92.9098 83.8078L99.5404 89.3897V25.6378Z" fill="url(#paint1_linear_322_85)"/>
<path d="M76.6484 54.3294L80.2978 75.067L85.5837 68.745L84.5434 44.8867L76.6484 54.3294Z" fill="url(#paint2_linear_322_85)"/>
<path d="M76.6521 54.3298L66 48.1602L73.1761 70.9359L80.3015 75.0674L76.6521 54.3298Z" fill="url(#paint3_linear_322_85)"/>
<path d="M84.5471 44.8881L73.9034 38.748L66 48.1611L76.6479 54.3308L84.5471 44.8881Z" fill="#6133CC"/>
<path d="M123.011 43.2771L118.795 67.1693L125.383 63.3465L133.659 37.1074L123.011 43.2771Z" fill="url(#paint4_linear_322_85)"/>
<path d="M123.011 43.2767L115.112 33.834L113.902 61.3205L118.795 67.1688L123.011 43.2767Z" fill="url(#paint5_linear_322_85)"/>
<path d="M133.656 37.1064L125.753 27.6934L115.109 33.8334L123.004 43.2761L133.656 37.1064Z" fill="#6E50A9"/>
<path d="M108.958 17.7089L99.5404 10L90.123 17.7089L99.5404 25.6377L108.958 17.7089Z" fill="#6500F3"/>
<defs>
<linearGradient id="paint0_linear_322_85" x1="103.907" y1="88.1507" x2="104.262" y2="19.2398" gradientUnits="userSpaceOnUse">
<stop stop-color="#5045F4"/>
<stop offset="0.51" stop-color="#0C00C5"/>
<stop offset="0.9" stop-color="#8245F4"/>
<stop offset="1" stop-color="#5045F4"/>
</linearGradient>
<linearGradient id="paint1_linear_322_85" x1="95.4639" y1="85.6515" x2="94.7873" y2="17.0916" gradientUnits="userSpaceOnUse">
<stop stop-color="#5045F4"/>
<stop offset="0.5" stop-color="#837AFF"/>
<stop offset="1" stop-color="#0B00AE"/>
</linearGradient>
<linearGradient id="paint2_linear_322_85" x1="81.4734" y1="74.3481" x2="80.6699" y2="45.6014" gradientUnits="userSpaceOnUse">
<stop stop-color="#4568F4"/>
<stop offset="0.19" stop-color="#7A45F4"/>
<stop offset="0.54" stop-color="#5045F4"/>
<stop offset="1" stop-color="#5045F4"/>
</linearGradient>
<linearGradient id="paint3_linear_322_85" x1="72.6898" y1="74.801" x2="73.6117" y2="48.4223" gradientUnits="userSpaceOnUse">
<stop stop-color="#29237E"/>
<stop offset="0.51" stop-color="#403C74"/>
<stop offset="1" stop-color="#481187"/>
</linearGradient>
<linearGradient id="paint4_linear_322_85" x1="123.121" y1="67.2707" x2="128.978" y2="36.841" gradientUnits="userSpaceOnUse">
<stop stop-color="#7152AF"/>
<stop offset="1" stop-color="#5045F4"/>
</linearGradient>
<linearGradient id="paint5_linear_322_85" x1="111.423" y1="64.1897" x2="122.485" y2="36.8143" gradientUnits="userSpaceOnUse">
<stop stop-color="#5045F4"/>
<stop offset="0.17" stop-color="#7152AF"/>
<stop offset="0.48" stop-color="#5045F4"/>
<stop offset="1" stop-color="#7152AF"/>
</linearGradient>
</defs>
</svg>
