<svg width="200" height="100" viewBox="0 0 200 100" fill="none" xmlns="http://www.w3.org/2000/svg">
<rect width="200" height="100" rx="10" fill="white"/>
<path d="M97.4808 27.8183V47.1637H90.6878V29.0504C90.6878 18.8397 73.7989 18.8397 73.7989 29.0504V47.1637H67.0059V27.8183C67.0059 9.39391 97.4808 9.39391 97.4808 27.8183ZM101.52 65.6546V85H108.313V66.8867C108.313 56.676 125.202 56.676 125.202 66.8867V85H131.995V65.6546C131.995 47.2304 101.52 47.2304 101.52 65.6546ZM131.995 40.1732H115.519C111.997 40.1732 108.954 38.5866 108.954 34.4835H131.81C131.81 34.4835 134.259 14.1626 116.411 14.1626C98.5617 14.1626 101.011 29.8359 101.011 34.4835C101.011 39.1311 103.977 48.3016 115.519 48.3016H131.995V40.1732ZM108.954 28.25C108.954 18.7734 124.442 18.7734 124.442 28.25H108.954ZM74.5078 73.1038C74.5078 79.3132 89.9789 79.3132 89.9789 73.1038V63.976C89.9789 56.6489 74.5078 56.6489 74.5078 63.976V73.1038ZM67.2152 62.4839C67.2152 48.0874 97.2715 48.0874 97.2715 62.4839V73.8824C97.2715 88.4 67.2151 88.4 67.2151 73.8824L67.2152 62.4839Z" fill="#5045F4"/>
</svg>
