<svg width="200" height="100" viewBox="0 0 200 100" fill="none" xmlns="http://www.w3.org/2000/svg">
<rect width="200" height="100" rx="10" fill="white"/>
<path d="M105.001 77.7749H135.834C136.817 77.7749 137.759 77.429 138.613 76.9415C139.463 76.454 140.342 75.8415 140.834 74.9999C141.326 74.154 141.667 73.1957 141.667 72.2207C141.667 71.2457 141.326 70.2874 140.834 69.4415L120.001 33.6082C119.546 32.7919 118.872 32.1192 118.055 31.6665C117.118 31.1476 116.071 30.8617 115.001 30.8332C114.017 30.8332 113.076 31.179 112.221 31.6665C111.406 32.1199 110.733 32.7925 110.28 33.6082L105.001 42.7749L94.4465 24.9999C93.9548 24.154 93.3548 23.2624 92.5006 22.7749C91.6465 22.2874 90.709 22.2207 89.7215 22.2207C88.7381 22.2207 87.7965 22.2874 86.9465 22.7749C86.0965 23.2624 85.2132 24.1499 84.7215 24.9999L58.8882 69.4415C58.3965 70.2874 58.334 71.2457 58.334 72.2207C58.334 73.1957 58.3965 74.154 58.8882 74.9999C59.3798 75.8415 60.2632 76.4582 61.1132 76.9415C61.9632 77.4249 62.9048 77.7749 63.8882 77.7749H83.334C91.0423 77.7749 96.6465 74.3165 100.555 67.7749L110.001 51.3874L115.001 42.7749L130.28 68.8874H110.001L105.001 77.7749ZM83.0548 68.8874H69.4465L89.7215 33.8874L100.001 51.3874L93.1923 63.254C90.5965 67.504 87.6382 68.8874 83.0548 68.8874Z" fill="#5045F4"/>
</svg>
