<svg width="200" height="100" viewBox="0 0 200 100" fill="none" xmlns="http://www.w3.org/2000/svg">
<rect width="200" height="100" rx="10" fill="#5045F4"/>
<path d="M94.7509 53.7078V53.2495C95.0009 52.6245 95.2509 52.0412 95.5426 51.4578C97.8487 46.584 98.2355 41.0206 96.6259 35.8745C96.5419 35.1396 96.2324 34.4487 95.74 33.8966C95.2477 33.3445 94.5965 32.9584 93.8759 32.7912C90.7761 32.5754 87.7015 33.4771 85.2093 35.3328V36.0828C85.4842 39.4294 85.4004 42.7958 84.9593 46.1245C84.7228 47.6186 84.8328 49.1471 85.2807 50.5919C85.7286 52.0368 86.5025 53.3594 87.5426 54.4578C88.3087 55.2729 89.2311 55.9253 90.2548 56.3763C91.2784 56.8273 92.3824 57.0676 93.5009 57.0828C93.8565 55.9361 94.2738 54.8095 94.7509 53.7078ZM91.6676 35.7495C91.4335 35.4843 91.3007 35.1448 91.2926 34.7912C91.348 34.5822 91.4825 34.4029 91.6676 34.2912C92.2826 33.972 92.9871 33.8692 93.6676 33.9995C94.7093 33.9995 95.7509 34.6662 95.6676 35.4162C95.5121 35.8289 95.232 36.183 94.8661 36.4294C94.5003 36.6758 94.0669 36.8022 93.6259 36.7912H93.3759C92.6913 36.6831 92.0772 36.3086 91.6676 35.7495Z" fill="white"/>
<path d="M82.8329 45.8328C83.2083 42.6526 83.292 39.4448 83.0829 36.2494V35.0828C82.9187 28.2043 85.1915 21.4892 89.4996 16.1245C85.3329 14.7911 75.3329 11.9578 69.2079 16.5411C65.4579 19.2078 63.7079 24.2078 64.0829 31.3328C64.9164 37.557 66.3109 43.6931 68.2496 49.6661C71.0829 58.9161 74.2913 64.7495 77.0413 65.7078C77.4579 65.7078 78.7496 66.2494 80.6246 63.9994C83.2913 60.8328 85.7496 58.1244 86.8746 56.9161L86.0829 56.1245C84.7779 54.7801 83.8046 53.1498 83.2403 51.3631C82.6761 49.5765 82.5366 47.6828 82.8329 45.8328ZM97.4163 59.9994C96.7496 59.7494 96.4163 59.5828 95.6663 60.4578C95.22 60.9062 94.8156 61.3943 94.4579 61.9161C92.9996 63.7078 92.3746 64.3328 88.1663 65.2078C87.5963 65.3024 87.0378 65.456 86.4996 65.6661C86.9629 65.9907 87.4874 66.2175 88.0413 66.3328C89.9058 66.9634 91.9234 66.98 93.7981 66.3801C95.6727 65.7802 97.3059 64.5954 98.4579 62.9994C98.5655 62.7714 98.6214 62.5224 98.6214 62.2703C98.6214 62.0181 98.5655 61.7691 98.4579 61.5411C98.322 60.9123 97.9489 60.3602 97.4163 59.9994ZM123.625 35.7494C123.823 34.6628 123.934 33.5621 123.958 32.4578C121.208 32.1244 118.041 32.1661 116.791 33.9578C114.375 37.4161 119.125 45.9578 120.958 49.5828C121.364 50.224 121.726 50.8922 122.041 51.5828C122.212 52.0305 122.421 52.4627 122.666 52.8744C123.756 50.046 123.988 46.959 123.333 43.9995C123.133 42.5497 123.036 41.0878 123.041 39.6245C123.134 38.3195 123.329 37.0239 123.625 35.7494ZM121.291 35.0828C120.93 35.4507 120.465 35.6981 119.958 35.7911H119.708C119.312 35.7927 118.924 35.674 118.597 35.4508C118.27 35.2277 118.018 34.9105 117.875 34.5411C117.875 33.9578 118.708 33.5411 119.708 33.3745C120.708 33.2078 121.708 33.3744 121.791 33.9994C121.772 34.4119 121.593 34.8007 121.291 35.0828Z" fill="white"/>
<path d="M120.833 20.3333C123.578 23.3857 125.538 27.0612 126.542 31.0416C126.564 31.2494 126.564 31.4589 126.542 31.6666C126.555 33.1473 126.429 34.626 126.167 36.0833C125.968 37.2689 125.843 38.4656 125.792 39.6666C125.783 41.0609 125.881 42.4538 126.083 43.8333C126.925 47.6566 126.394 51.6541 124.583 55.125L124.875 55.4583C134.125 40.9166 137.375 24.0416 134.417 20.3333C132.522 17.9509 130.105 16.0357 127.352 14.7353C124.6 13.4349 121.585 12.7842 118.542 12.8333C116.26 12.8001 113.982 13.0237 111.75 13.5C115.248 15.0751 118.35 17.4094 120.833 20.3333Z" fill="white"/>
<path d="M140.207 58.3331C139.916 57.4998 138.666 54.7914 134.082 55.7498C132.711 56.0469 131.317 56.2281 129.916 56.2914C133.679 49.931 136.566 43.0914 138.499 35.9581C140.041 29.9164 141.249 21.8331 138.041 17.7081C135.684 14.7189 132.667 12.3167 129.226 10.69C125.784 9.06338 122.013 8.25662 118.207 8.3331C114.737 8.30839 111.283 8.79988 107.957 9.79143C105.962 9.44099 103.942 9.24596 101.916 9.2081C98.3293 9.13439 94.7889 10.0267 91.6658 11.7914C89.2575 10.9941 86.7921 10.3812 84.2908 9.9581C81.3197 9.20058 78.2258 9.05372 75.1964 9.5264C72.1669 9.99909 69.2649 11.0815 66.6658 12.7081C61.4991 16.3331 59.1241 22.6664 59.5408 31.5414C60.3367 38.1405 61.7313 44.6534 63.7074 50.9998C64.8886 54.9684 66.437 58.8184 68.3324 62.4998C69.6906 65.8854 72.3025 68.6167 75.6241 70.1248C76.8289 70.5171 78.1165 70.5811 79.3543 70.3101C80.5921 70.0391 81.7352 69.443 82.6658 68.5831C83.781 69.7965 85.231 70.652 86.8324 71.0414C90.0712 71.9338 93.5142 71.7287 96.6241 70.4581V73.8331C96.5913 77.1552 97.0261 80.4655 97.9158 83.6664C97.9275 83.8468 97.9275 84.0277 97.9158 84.2081C98.4714 86.1434 99.4863 87.9159 100.874 89.3748C102.552 90.9449 104.785 91.7842 107.082 91.7081C108.064 91.7119 109.043 91.6001 109.999 91.3748C111.81 91.1541 113.558 90.5721 115.14 89.6631C116.722 88.7541 118.105 87.5367 119.207 86.0831C122.03 81.0008 123.345 75.2194 122.999 69.4164V68.3331H123.707C127.125 68.5698 130.551 67.9989 133.707 66.6664C135.582 65.7081 141.666 62.4998 140.207 58.3331ZM132.666 64.4581C130.283 65.4177 127.735 65.899 125.166 65.8748C124.054 65.9057 122.943 65.7652 121.874 65.4581C121.457 69.3748 120.541 76.6664 119.999 79.7081C119.839 82.1621 118.806 84.4777 117.086 86.2356C115.366 87.9936 113.074 89.0776 110.624 89.2914C109.72 89.4837 108.798 89.5815 107.874 89.5831C106.06 89.5408 104.309 88.9075 102.888 87.7794C101.467 86.6514 100.452 85.0902 99.9991 83.3331C98.9262 77.7623 98.5344 72.0818 98.8324 66.4164C96.804 68.2498 94.1491 69.2342 91.4158 69.1664C90.0934 69.1419 88.7786 68.9601 87.4991 68.6248C87.1241 68.6248 83.8741 67.6664 83.9158 65.5831C83.9575 63.4998 86.6658 63.1248 87.6658 62.9164C91.2491 62.1664 91.4991 61.8748 92.6241 60.4581C92.8708 60.1115 93.135 59.7777 93.4158 59.4581C91.7993 59.3975 90.2177 58.9701 88.7908 58.2081C87.8325 59.2498 85.2074 62.0831 82.3741 65.4581C81.8592 66.2239 81.1733 66.8597 80.3707 67.3152C79.5681 67.7707 78.6707 68.0336 77.7491 68.0831C77.2656 68.1544 76.7743 68.1544 76.2908 68.0831C72.6241 66.6664 69.1658 60.6248 65.9991 49.9998C64.0282 43.8508 62.6333 37.532 61.8324 31.1248C61.4158 23.1248 63.4991 17.4581 67.9574 14.4581C75.9574 8.79143 88.7908 13.1664 91.7074 14.2081C94.6751 12.2426 98.1941 11.2789 101.749 11.4581C103.717 11.4611 105.677 11.7131 107.582 12.2081C110.935 11.0663 114.458 10.5027 117.999 10.5414C121.439 10.4468 124.854 11.15 127.977 12.5957C131.1 14.0415 133.846 16.1906 135.999 18.8748C138.874 22.5414 136.957 31.3748 135.999 35.0831C133.864 43.0803 130.475 50.6886 125.957 57.6248C126.624 58.0831 128.666 58.9164 134.291 57.6248C136.207 57.2081 137.332 57.6248 137.707 58.6664C138.624 60.9581 134.791 63.3748 132.666 64.3748V64.4581Z" fill="white"/>
<path d="M122.626 56.6252C121.564 55.3713 120.693 53.9672 120.042 52.4586C120.042 52.1669 119.542 51.4586 119.084 50.6669C116.667 46.5002 111.626 37.2502 114.917 32.5836C116.025 31.4052 117.431 30.5473 118.985 30.1C120.539 29.6527 122.186 29.6327 123.751 30.0419C122.678 27.0873 121.083 24.3494 119.042 21.9586C116.96 19.3932 114.339 17.3171 111.365 15.877C108.392 14.4369 105.138 13.6682 101.834 13.6252C99.8843 13.5023 97.9307 13.7913 96.1001 14.4733C94.2695 15.1553 92.603 16.215 91.209 17.5836C87.6614 21.7629 85.6345 27.021 85.459 32.5002L86.084 32.1669C87.8163 31.2325 89.7116 30.6385 91.6673 30.4169C92.4767 30.2294 93.316 30.2109 94.1328 30.3625C94.9496 30.514 95.7264 30.8324 96.4147 31.2977C97.1029 31.7631 97.6877 32.3653 98.1327 33.0669C98.5776 33.7685 98.8731 34.5543 99.0007 35.3752C100.714 41.0104 100.283 47.0798 97.7923 52.4169C97.518 52.9411 97.2813 53.4841 97.084 54.0419V54.5002C96.6673 55.6252 96.2923 56.6669 96.0423 57.5419C96.845 57.389 97.6755 57.491 98.4173 57.8336C99.0441 58.1319 99.5992 58.5617 100.045 59.0937C100.491 59.6258 100.817 60.2476 101.001 60.9169V61.5836C101.02 61.7078 101.02 61.8343 101.001 61.9586C100.551 68.7771 100.859 75.6244 101.917 82.3752C102.105 83.2571 102.481 84.0878 103.02 84.8106C103.559 85.5334 104.248 86.131 105.04 86.5624C105.831 86.9939 106.707 87.2489 107.606 87.3101C108.506 87.3713 109.408 87.2372 110.251 86.9169C112.235 86.7831 114.098 85.9152 115.477 84.4824C116.856 83.0496 117.651 81.1546 117.709 79.1669C118.334 75.5002 119.584 65.2086 119.751 63.0002C119.751 58.5836 121.917 57.7086 123.251 57.3336L122.626 56.6252Z" fill="white"/>
<path d="M125 59.709L124.666 59.459H124.166C123.083 59.7507 122.083 60.0423 122.208 62.7923C123.437 63.2801 124.77 63.452 126.083 63.2923C128.053 63.2087 129.996 62.8004 131.833 62.084C133.038 61.5403 134.149 60.809 135.125 59.9173C131.835 61.0708 128.239 60.9968 125 59.709Z" fill="white"/>
</svg>
