<svg width="200" height="100" viewBox="0 0 200 100" fill="none" xmlns="http://www.w3.org/2000/svg">
<rect width="200" height="100" rx="10" fill="white"/>
<path d="M123.87 71.6633L90.8275 81.4811C89.818 81.7813 88.8505 80.9041 89.0627 79.8807L100.867 23.0897C101.088 22.0271 102.549 21.859 103.01 22.8426L124.866 69.4676C125.278 70.3478 124.808 71.3851 123.87 71.6635M129.536 69.3469L104.23 15.3596C102.562 12.2246 98.6138 12.3383 97.0715 14.9621L69.6256 59.621C68.7753 61.0136 68.7921 62.7299 69.6739 64.1044L83.09 84.9832C84.4733 86.64 85.7524 87.4214 87.9372 86.7722L126.88 75.2013C129.474 74.4209 130.725 71.9028 129.536 69.3469Z" fill="#5045F4"/>
</svg>
