<svg width="200" height="100" viewBox="0 0 200 100" fill="none" xmlns="http://www.w3.org/2000/svg">
<rect width="200" height="100" rx="10" fill="#5045F4"/>
<path d="M120.656 13H81.3438C71.7651 13 64 20.7651 64 30.3438V69.6562C64 79.2349 71.7651 87 81.3438 87H120.656C130.235 87 138 79.2349 138 69.6562V30.3438C138 20.7651 130.235 13 120.656 13Z" fill="white"/>
<path fill-rule="evenodd" clip-rule="evenodd" d="M87.9922 44.7969C89.7266 37.8594 94.0625 34.3906 101 34.3906C111.406 34.3906 112.707 42.1953 117.91 43.4961C121.379 44.3637 124.414 43.0629 127.016 39.5938C125.281 46.5312 120.945 50 114.008 50C103.602 50 102.301 42.1953 97.0977 40.8945C93.6289 40.0273 90.5938 41.3281 87.9922 44.7969ZM74.9844 60.4062C76.7188 53.4688 81.0547 50 87.9922 50C98.3984 50 99.6992 57.8047 104.902 59.1055C108.371 59.973 111.406 58.6723 114.008 55.2031C112.273 62.1406 107.938 65.6094 101 65.6094C90.5938 65.6094 89.293 57.8047 84.0898 56.5039C80.6211 55.6363 77.5859 56.9371 74.9844 60.4062Z" fill="#5045F4"/>
</svg>
