<svg width="200" height="100" viewBox="0 0 200 100" fill="none" xmlns="http://www.w3.org/2000/svg">
<rect width="200" height="100" rx="10" fill="#5045F4"/>
<mask id="mask0_322_48" style="mask-type:luminance" maskUnits="userSpaceOnUse" x="61" y="13" width="74" height="74">
<path d="M61 23C61 17.4772 65.4772 13 71 13H125C130.523 13 135 17.4772 135 23V77C135 82.5228 130.523 87 125 87H71C65.4772 87 61 82.5228 61 77V23Z" fill="white"/>
</mask>
<g mask="url(#mask0_322_48)">
<path d="M133.239 13H62.7575C62.5264 13 62.2977 13.0456 62.0842 13.1341C61.8708 13.2226 61.6769 13.3523 61.5137 13.5159C61.3504 13.6794 61.221 13.8735 61.1329 14.0871C61.0448 14.3007 60.9996 14.5295 61 14.7606V85.2425C60.9996 85.4738 61.0449 85.7029 61.1332 85.9167C61.2215 86.1305 61.3512 86.3248 61.5148 86.4883C61.6783 86.6519 61.8726 86.7816 62.0864 86.8699C62.3001 86.9582 62.5293 87.0035 62.7606 87.0031H133.243C133.474 87.0035 133.703 86.9582 133.917 86.8699C134.131 86.7816 134.325 86.6519 134.488 86.4883C134.652 86.3248 134.782 86.1305 134.87 85.9167C134.958 85.7029 135.003 85.4738 135.003 85.2425V14.7575C135.003 14.5262 134.957 14.2971 134.869 14.0835C134.78 13.8699 134.65 13.6759 134.486 13.5126C134.322 13.3493 134.128 13.22 133.914 13.132C133.7 13.0441 133.471 12.9992 133.239 13ZM105.049 52.5468H96.2394V79.9515H89.1909V52.5468H80.3818V46.4758H105.049V52.5468ZM107.022 78.3852V71.0623C107.022 71.0623 111.024 74.0778 115.825 74.0778C120.626 74.0778 120.441 70.9389 120.441 70.5073C120.441 65.9532 106.837 65.9532 106.837 55.8583C106.837 42.1313 126.66 47.5488 126.66 47.5488L126.413 54.0731C126.413 54.0731 123.089 51.8562 119.334 51.8562C115.578 51.8562 114.225 53.6445 114.225 55.55C114.225 60.4741 127.952 59.9838 127.952 69.8937C127.952 85.1562 107.022 78.3883 107.022 78.3883" fill="white"/>
</g>
</svg>
