<svg width="200" height="100" viewBox="0 0 200 100" fill="none" xmlns="http://www.w3.org/2000/svg">
<rect width="200" height="100" rx="10" fill="white"/>
<path d="M129.75 63.6V31.8653L102.592 16V28.1848L113.23 34.4153C113.651 34.7 113.651 35.2652 113.23 35.4097L100.629 42.775C100.208 43.0598 99.7918 42.9153 99.5113 42.775L86.91 35.4097C86.4893 35.2652 86.4893 34.5598 86.91 34.4153L97.552 28.1848V16L70.25 31.8653V63.6L80.6115 57.5098V45.0403C80.6115 44.6153 81.1682 44.3347 81.4487 44.475L94.05 51.8402C94.4707 52.125 94.611 52.4097 94.611 52.8347V67.5653C94.611 67.9903 94.05 68.275 93.7695 68.1348L83.1318 61.9L72.7703 67.9902L99.9277 84L127.089 68.1348L116.728 62.0403L106.095 68.275C105.674 68.5598 105.253 68.275 105.253 67.7097V52.975C105.253 52.55 105.534 52.125 105.814 51.9848L118.415 44.6152C118.836 44.3347 119.252 44.6153 119.252 45.1848V57.65L129.75 63.6Z" fill="#5045F4"/>
</svg>
