<svg width="200" height="100" viewBox="0 0 200 100" fill="none" xmlns="http://www.w3.org/2000/svg">
<rect width="200" height="100" rx="10" fill="white"/>
<path d="M99.8255 41.7428C93.812 41.7428 89.4763 45.6769 89.4763 51.5781C89.4763 57.4795 94.3567 61.4137 100.371 61.4137C104.004 61.4137 107.206 59.9711 109.189 57.5395L105.022 55.1245C103.922 56.332 102.25 57.0369 100.37 57.0369C97.7613 57.0369 95.5442 55.6709 94.7216 53.4853H109.984C110.104 52.8731 110.175 52.2391 110.175 51.5726C110.175 45.6769 105.839 41.7428 99.8255 41.7428ZM94.6732 49.6657C95.3538 47.4855 97.2169 46.1138 99.8204 46.1138C102.43 46.1138 104.293 47.4855 104.968 49.6657H94.6732ZM158.48 41.7425C152.467 41.7425 148.131 45.6769 148.131 51.5781C148.131 57.4795 153.011 61.4137 159.025 61.4137C162.658 61.4137 165.861 59.9711 167.844 57.5395L163.677 55.1245C162.576 56.332 160.904 57.0369 159.025 57.0369C156.416 57.0369 154.199 55.6709 153.376 53.4853H168.638C168.758 52.8731 168.829 52.2391 168.829 51.5726C168.829 45.6769 164.493 41.7425 158.48 41.7425M153.332 49.6657C154.013 47.4855 155.876 46.1138 158.48 46.1138C161.089 46.1138 162.952 47.4855 163.627 49.6657H153.332ZM132.072 51.5781C132.072 54.8566 134.208 57.0423 137.519 57.0423C139.763 57.0423 141.446 56.0206 142.313 54.3539L146.496 56.7747C144.764 59.6706 141.517 61.4137 137.519 61.4137C131.5 61.4137 127.17 57.4792 127.17 51.5781C127.17 45.6769 131.506 41.7428 137.519 41.7428C141.517 41.7428 144.758 43.4858 146.496 46.3818L142.313 48.8025C141.446 47.1358 139.763 46.1141 137.519 46.1141C134.213 46.1141 132.072 48.2992 132.072 51.5781ZM177 35.7321V60.8672H172.098V35.7321H177ZM43.1271 33L63.2539 67.9707H23L43.1271 33ZM93.4472 35.7321L78.3534 61.9601L63.2593 35.7321H68.9191L78.3534 52.1248L87.7877 35.7321H93.4472ZM125.536 42.2892V47.5838C124.991 47.4254 124.414 47.3162 123.793 47.3162C120.628 47.3162 118.346 49.5019 118.346 52.7804V60.8672H113.443V42.2892H118.346V47.3159C118.346 44.54 121.565 42.2892 125.536 42.2892Z" fill="#5045F4"/>
</svg>
