<svg width="200" height="100" viewBox="0 0 200 100" fill="none" xmlns="http://www.w3.org/2000/svg">
<rect width="200" height="100" rx="10" transform="matrix(1 0 0 -1 0 100)" fill="#5045F4"/>
<path d="M86.9395 60.1406L80.7677 77.4219C80.5107 78.141 80.0377 78.763 79.4134 79.2028C78.7891 79.6426 78.0442 79.8787 77.2806 79.8787C76.5169 79.8787 75.772 79.6426 75.1477 79.2028C74.5235 78.763 74.0504 78.141 73.7935 77.4219L67.6216 60.1406C67.3458 59.2291 67.4318 58.2463 67.8617 57.3964C68.2917 56.5466 69.0325 55.8952 69.9303 55.5773C70.8281 55.2595 71.8138 55.2999 72.6827 55.6899C73.5515 56.08 74.2367 56.7898 74.5958 57.6719L77.2806 65.1769L79.9653 57.6719C80.3244 56.7898 81.0096 56.08 81.8784 55.6899C82.7473 55.2999 83.733 55.2595 84.6308 55.5773C85.5286 55.8952 86.2694 56.5466 86.6994 57.3964C87.1293 58.2463 87.2154 59.2291 86.9395 60.1406ZM125.421 72.4844H119.249V71.25H122.952C123.935 71.25 124.876 70.8598 125.571 70.1654C126.265 69.4709 126.656 68.529 126.656 67.5469C126.656 66.5647 126.265 65.6228 125.571 64.9284C124.876 64.2339 123.935 63.8438 122.952 63.8438H119.249V62.6094H125.421C126.403 62.6094 127.345 62.2192 128.04 61.5248C128.734 60.8303 129.124 59.8884 129.124 58.9062C129.124 57.9241 128.734 56.9822 128.04 56.2877C127.345 55.5933 126.403 55.2031 125.421 55.2031H115.546C114.564 55.2031 113.622 55.5933 112.928 56.2877C112.233 56.9822 111.843 57.9241 111.843 58.9062V76.1875C111.843 77.1696 112.233 78.1115 112.928 78.806C113.622 79.5005 114.564 79.8906 115.546 79.8906H125.421C126.403 79.8906 127.345 79.5005 128.04 78.806C128.734 78.1115 129.124 77.1696 129.124 76.1875C129.124 75.2054 128.734 74.2635 128.04 73.569C127.345 72.8745 126.403 72.4844 125.421 72.4844ZM104.437 55.2031C103.455 55.2031 102.513 55.5933 101.818 56.2877C101.124 56.9822 100.734 57.9241 100.734 58.9062V70.6328C100.734 71.1239 100.539 71.5948 100.191 71.9421C99.8441 72.2893 99.3732 72.4844 98.8821 72.4844C98.3911 72.4844 97.9201 72.2893 97.5729 71.9421C97.2256 71.5948 97.0306 71.1239 97.0306 70.6328V58.9062C97.0306 57.9241 96.6404 56.9822 95.9459 56.2877C95.2515 55.5933 94.3096 55.2031 93.3274 55.2031C92.3453 55.2031 91.4034 55.5933 90.7089 56.2877C90.0145 56.9822 89.6243 57.9241 89.6243 58.9062V70.6328C89.6243 73.0881 90.5997 75.4429 92.3359 77.1791C94.072 78.9153 96.4268 79.8906 98.8821 79.8906C101.337 79.8906 103.692 78.9153 105.428 77.1791C107.165 75.4429 108.14 73.0881 108.14 70.6328V58.9062C108.14 57.9241 107.75 56.9822 107.055 56.2877C106.361 55.5933 105.419 55.2031 104.437 55.2031ZM71.1087 45.3281V24.3438C71.1087 22.7069 71.7589 21.137 72.9164 19.9796C74.0738 18.8221 75.6437 18.1719 77.2806 18.1719H106.906C107.392 18.1719 107.874 18.2678 108.324 18.4542C108.773 18.6406 109.182 18.9138 109.526 19.2581L126.807 36.5394C127.5 37.2337 127.89 38.1749 127.89 39.1562V45.3281C127.89 46.3103 127.5 47.2522 126.805 47.9466C126.111 48.6411 125.169 49.0312 124.187 49.0312C123.205 49.0312 122.263 48.6411 121.568 47.9466C120.874 47.2522 120.484 46.3103 120.484 45.3281V44.0938H105.671C104.689 44.0938 103.747 43.7036 103.053 43.0091C102.358 42.3147 101.968 41.3728 101.968 40.3906V25.5781H78.5149V45.3281C78.5149 46.3103 78.1248 47.2522 77.4303 47.9466C76.7358 48.6411 75.7939 49.0312 74.8118 49.0312C73.8297 49.0312 72.8878 48.6411 72.1933 47.9466C71.4988 47.2522 71.1087 46.3103 71.1087 45.3281ZM109.374 36.6875H116.472L109.374 29.5898V36.6875Z" fill="white"/>
</svg>
